<svg width="115" height="83" viewBox="0 0 115 83" fill="none" xmlns="http://www.w3.org/2000/svg">
<g clip-path="url(#clip0_39_2)">
<path d="M111.91 31.47C109.34 29.68 103.44 29.02 98.83 29.91C98.29 25.45 95.83 21.54 91.54 18.08L89.07 16.29L87.35 18.86C85.1157 22.6269 84.1059 26.9946 84.46 31.36C84.6448 33.7793 85.4171 36.1169 86.71 38.17C84.0319 39.5586 81.0458 40.2467 78.03 40.17H0.520016L0.310024 41.06C-0.439976 45.52 -0.439976 59.47 8.31002 70.18C14.96 78.33 24.82 82.45 37.79 82.45C65.88 82.45 86.68 68.95 96.43 44.51C100.29 44.62 108.54 44.51 112.73 36.14C112.84 35.92 113.05 35.47 113.8 33.8L114.23 32.91L111.87 31.46L111.91 31.47ZM62.48 -1.14441e-05H50.69V11.16H62.48V-1.14441e-05ZM62.48 13.39H50.69V24.55H62.48V13.39ZM48.54 13.39H36.75V24.55H48.54V13.39ZM34.6 13.39H22.82V24.55H34.61V13.39H34.6ZM20.66 26.78H8.88003V37.94H20.67V26.78H20.66ZM34.6 26.78H22.82V37.94H34.61V26.78H34.6ZM48.54 26.78H36.75V37.94H48.54V26.78ZM62.48 26.78H50.69V37.94H62.48V26.78ZM76.42 26.78H64.63V37.94H76.42V26.78Z" fill="#2496ED"/>
</g>
<defs>
<clipPath id="clip0_39_2">
<rect width="115" height="83" fill="white"/>
</clipPath>
</defs>
</svg>
