<?xml version="1.0" encoding="UTF-8"?><svg id="Layer_1" xmlns="http://www.w3.org/2000/svg" xmlns:xlink="http://www.w3.org/1999/xlink" viewBox="0 0 1200 340.6"><defs><style>.cls-1{fill:url(#linear-gradient-2);}.cls-2{fill:#fff;}.cls-3{fill:#424cf9;}.cls-4{fill:url(#linear-gradient);}</style><linearGradient id="linear-gradient" x1="-1372.16" y1="1875.9" x2="-1372.16" y2="2018.11" gradientTransform="translate(-1230.27 2014.49) rotate(-180)" gradientUnits="userSpaceOnUse"><stop offset=".13" stop-color="#172881"/><stop offset=".17" stop-color="#192987" stop-opacity=".95"/><stop offset=".56" stop-color="#2f3cc4" stop-opacity=".44"/><stop offset=".85" stop-color="#3c47ea" stop-opacity=".12"/><stop offset="1" stop-color="#424cf9" stop-opacity="0"/></linearGradient><linearGradient id="linear-gradient-2" x1="1648.36" y1="5187.34" x2="1648.36" y2="5329.55" gradientTransform="translate(-1450.82 -4985.36)" xlink:href="#linear-gradient"/></defs><g><path class="cls-3" d="M339.46,215.86c.06-7.23-2.51-11.64-8.6-15.37-16.46-10.06-49.94-31.32-49.94-31.32,17.08-10.28,33.62-21.45,50.61-31.88,5.81-3.57,7.96-7.86,7.91-14.65-.27-36.96-.33-73.93,.01-110.9C339.54,3.21,336.96-.02,328.11,0c-37.17,.08-74.4,.02-111.5,.11-22.99,.06-36.98,12.11-46.88,33.51C161.9,11.7,146.21,.18,123.63,.12,86.61,.02,48.87,.09,11.49,.03,2.8,.02-.07,3.23,0,11.85,.34,49.48,.29,87.11,0,124.74c-.06,7.23,2.5,11.65,8.6,15.37,16.58,10.12,49.94,31.29,49.94,31.32,0,0-33.62,21.45-50.61,31.88C2.12,206.89-.04,211.18,.02,217.96c.27,36.96,.33,73.93-.01,110.9-.08,8.54,2.5,11.76,11.35,11.75,37.17-.08,74.13-.03,111.5-.11,22.99-.05,36.98-12.11,46.88-33.51,7.83,21.92,23.52,33.45,46.1,33.5,37.77,.09,74.76,.03,112.15,.09,8.69,.01,11.56-3.2,11.48-11.82-.34-37.63-.28-75.27,0-112.9Z"/><path class="cls-4" d="M280.91,169.17L2.86,2.31S4.03,.98,7.54,.31C9.62-.08,12.82,.04,15.72,.03c7.39-.04,88.46,.06,88.46,.06l176.72,169.09Z"/><path class="cls-1" d="M58.51,171.4l278.05,166.86s-1.16,1.33-4.68,2c-2.08,.4-5.28,.27-8.18,.29-7.39,.04-88.46-.06-88.46-.06L58.51,171.4Z"/></g><g><g><path class="cls-2" d="M944.73,250.02h27.07v-32.69h-20.09c-9.54,0-17.3-7.76-17.3-17.3v-52.02h37.39v-30.76h-37.39v-33.27h-42.59v114.23c0,37.29,14.84,51.81,52.91,51.81Z"/><rect class="cls-2" x="991.62" y="83.98" width="42.59" height="166.04"/><path class="cls-2" d="M1126.28,110.65c-41.89,0-73.47,31.48-73.47,73.23s30.9,72.74,73.47,72.74,73.72-31.38,73.72-72.99-31.69-72.99-73.72-72.99Zm0,109.59c-19.98,0-33.93-14.95-33.93-36.36s13.95-36.84,33.93-36.84,34.41,15.39,34.41,36.6-14.47,36.6-34.41,36.6Z"/><path class="cls-2" d="M642.79,148.95c15.67,0,28.42,12.75,28.42,28.42v72.65h41.23v-81.23c0-34.5-21.93-55.94-57.22-55.94-21.93,0-37.58,9.81-46.53,29.15l-2.42,5.22-1.94-5.42c-6.86-19.21-21.38-28.96-43.15-28.96-16.98,0-31.34,5.54-38.34,18.06-2.32,4.16-3.44,8-3.44,8v-21.67h-42.84V250.02h41.6l1.25-76.56c1.92-13.92,12.61-24.51,26.88-24.51,15.67,0,28.42,12.75,28.42,28.42v72.65h39.96v-76.66c1.92-13.92,13.86-24.41,28.12-24.41Z"/></g><path class="cls-2" d="M802.76,112.01c-41.63,0-73.02,31.55-73.02,73.38s31.84,72.41,77.44,72.41c32.08,0,53.45-15.97,62.76-30.92l2.87-4.62-31.24-16.26c-4.89,9.43-17.84,16.18-33.09,16.18-19.44,0-35.21-10.96-35.21-24.48h.04s0-.04,0-.04h100.71l.69-5.76c.3-2.53,.3-4.93,.3-7.25,0-44.14-28.36-72.66-72.25-72.66Zm29.79,58.8h-59.28s0-.04,0-.06h0c0-13.22,13.27-23.94,29.64-23.94s29.64,10.72,29.64,23.94h0s0,.04,0,.06Z"/></g></svg>