<svg width="341" height="341" viewBox="0 0 341 341" fill="none" xmlns="http://www.w3.org/2000/svg">
<path d="M340.46 215.86C340.52 208.63 337.95 204.22 331.86 200.49C315.4 190.43 281.92 169.17 281.92 169.17C299 158.89 315.54 147.72 332.53 137.29C338.34 133.72 340.49 129.43 340.44 122.64C340.17 85.6801 340.11 48.7101 340.45 11.7401C340.54 3.21009 337.96 -0.0199078 329.11 9.22481e-05C291.94 0.0800922 254.71 0.0200922 217.61 0.110092C194.62 0.170092 180.63 12.2201 170.73 33.6201C162.9 11.7001 147.21 0.180092 124.63 0.120092C87.61 0.0200922 49.87 0.0900922 12.49 0.0300922C3.80002 0.0200922 0.930024 3.23009 1.00002 11.8501C1.34002 49.4801 1.29002 87.1101 1.00002 124.74C0.940024 131.97 3.50003 136.39 9.60003 140.11C26.18 150.23 59.54 171.4 59.54 171.43C59.54 171.43 25.92 192.88 8.93002 203.31C3.12002 206.89 0.960024 211.18 1.02002 217.96C1.29002 254.92 1.35002 291.89 1.01002 328.86C0.930024 337.4 3.51002 340.62 12.36 340.61C49.53 340.53 86.49 340.58 123.86 340.5C146.85 340.45 160.84 328.39 170.74 306.99C178.57 328.91 194.26 340.44 216.84 340.49C254.61 340.58 291.6 340.52 328.99 340.58C337.68 340.59 340.55 337.38 340.47 328.76C340.13 291.13 340.19 253.49 340.47 215.86H340.46Z" fill="#424CF9"/>
<path d="M281.91 169.17L3.85999 2.3104C3.85999 2.3104 5.02999 0.980395 8.53999 0.310395C10.62 -0.0796048 13.82 0.0403952 16.72 0.0303952C24.11 -0.00960484 105.18 0.0903952 105.18 0.0903952L281.9 169.18L281.91 169.17Z" fill="url(#paint0_linear_134_22)"/>
<path d="M59.51 171.4L337.56 338.26C337.56 338.26 336.4 339.59 332.88 340.26C330.8 340.66 327.6 340.53 324.7 340.55C317.31 340.59 236.24 340.49 236.24 340.49L59.51 171.4Z" fill="url(#paint1_linear_134_22)"/>
<defs>
<linearGradient id="paint0_linear_134_22" x1="142.89" y1="138.59" x2="142.89" y2="-3.6196" gradientUnits="userSpaceOnUse">
<stop offset="0.13" stop-color="#172881"/>
<stop offset="0.17" stop-color="#192987" stop-opacity="0.95"/>
<stop offset="0.56" stop-color="#2F3CC4" stop-opacity="0.44"/>
<stop offset="0.85" stop-color="#3C47EA" stop-opacity="0.12"/>
<stop offset="1" stop-color="#424CF9" stop-opacity="0"/>
</linearGradient>
<linearGradient id="paint1_linear_134_22" x1="198.54" y1="201.98" x2="198.54" y2="344.19" gradientUnits="userSpaceOnUse">
<stop offset="0.13" stop-color="#172881"/>
<stop offset="0.17" stop-color="#192987" stop-opacity="0.95"/>
<stop offset="0.56" stop-color="#2F3CC4" stop-opacity="0.44"/>
<stop offset="0.85" stop-color="#3C47EA" stop-opacity="0.12"/>
<stop offset="1" stop-color="#424CF9" stop-opacity="0"/>
</linearGradient>
</defs>
</svg>
